<?xml version="1.0" standalone="yes"?><svg xmlns="http://www.w3.org/2000/svg" version="1.1" width="1036" height="1036" viewBox="0 0 1036 1036" shape-rendering="crispEdges"><rect x="0" y="0" width="1036" height="1036" fill="#fff"/><path fill="#000" d="M112 112h28v28H112V112M140 112h28v28H140V112M168 112h28v28H168V112M196 112h28v28H196V112M224 112h28v28H224V112M252 112h28v28H252V112M280 112h28v28H280V112M420 112h28v28H420V112M448 112h28v28H448V112M476 112h28v28H476V112M504 112h28v28H504V112M532 112h28v28H532V112M616 112h28v28H616V112M672 112h28v28H672V112M728 112h28v28H728V112M756 112h28v28H756V112M784 112h28v28H784V112M812 112h28v28H812V112M840 112h28v28H840V112M868 112h28v28H868V112M896 112h28v28H896V112M112 140h28v28H112V140M280 140h28v28H280V140M336 140h28v28H336V140M448 140h28v28H448V140M532 140h28v28H532V140M588 140h28v28H588V140M672 140h28v28H672V140M728 140h28v28H728V140M896 140h28v28H896V140M112 168h28v28H112V168M168 168h28v28H168V168M196 168h28v28H196V168M224 168h28v28H224V168M280 168h28v28H280V168M336 168h28v28H336V168M364 168h28v28H364V168M392 168h28v28H392V168M504 168h28v28H504V168M560 168h28v28H560V168M672 168h28v28H672V168M728 168h28v28H728V168M784 168h28v28H784V168M812 168h28v28H812V168M840 168h28v28H840V168M896 168h28v28H896V168M112 196h28v28H112V196M168 196h28v28H168V196M196 196h28v28H196V196M224 196h28v28H224V196M280 196h28v28H280V196M336 196h28v28H336V196M364 196h28v28H364V196M392 196h28v28H392V196M448 196h28v28H448V196M504 196h28v28H504V196M532 196h28v28H532V196M560 196h28v28H560V196M588 196h28v28H588V196M644 196h28v28H644V196M672 196h28v28H672V196M728 196h28v28H728V196M784 196h28v28H784V196M812 196h28v28H812V196M840 196h28v28H840V196M896 196h28v28H896V196M112 224h28v28H112V224M168 224h28v28H168V224M196 224h28v28H196V224M224 224h28v28H224V224M280 224h28v28H280V224M364 224h28v28H364V224M476 224h28v28H476V224M504 224h28v28H504V224M532 224h28v28H532V224M616 224h28v28H616V224M644 224h28v28H644V224M672 224h28v28H672V224M728 224h28v28H728V224M784 224h28v28H784V224M812 224h28v28H812V224M840 224h28v28H840V224M896 224h28v28H896V224M112 252h28v28H112V252M280 252h28v28H280V252M364 252h28v28H364V252M420 252h28v28H420V252M476 252h28v28H476V252M504 252h28v28H504V252M560 252h28v28H560V252M616 252h28v28H616V252M672 252h28v28H672V252M728 252h28v28H728V252M896 252h28v28H896V252M112 280h28v28H112V280M140 280h28v28H140V280M168 280h28v28H168V280M196 280h28v28H196V280M224 280h28v28H224V280M252 280h28v28H252V280M280 280h28v28H280V280M336 280h28v28H336V280M392 280h28v28H392V280M448 280h28v28H448V280M504 280h28v28H504V280M560 280h28v28H560V280M616 280h28v28H616V280M672 280h28v28H672V280M728 280h28v28H728V280M756 280h28v28H756V280M784 280h28v28H784V280M812 280h28v28H812V280M840 280h28v28H840V280M868 280h28v28H868V280M896 280h28v28H896V280M336 308h28v28H336V308M364 308h28v28H364V308M392 308h28v28H392V308M448 308h28v28H448V308M476 308h28v28H476V308M532 308h28v28H532V308M644 308h28v28H644V308M672 308h28v28H672V308M112 336h28v28H112V336M280 336h28v28H280V336M336 336h28v28H336V336M392 336h28v28H392V336M420 336h28v28H420V336M448 336h28v28H448V336M504 336h28v28H504V336M532 336h28v28H532V336M560 336h28v28H560V336M588 336h28v28H588V336M644 336h28v28H644V336M700 336h28v28H700V336M728 336h28v28H728V336M812 336h28v28H812V336M840 336h28v28H840V336M868 336h28v28H868V336M112 364h28v28H112V364M140 364h28v28H140V364M196 364h28v28H196V364M252 364h28v28H252V364M308 364h28v28H308V364M336 364h28v28H336V364M364 364h28v28H364V364M504 364h28v28H504V364M560 364h28v28H560V364M644 364h28v28H644V364M784 364h28v28H784V364M840 364h28v28H840V364M868 364h28v28H868V364M140 392h28v28H140V392M168 392h28v28H168V392M224 392h28v28H224V392M252 392h28v28H252V392M280 392h28v28H280V392M392 392h28v28H392V392M420 392h28v28H420V392M560 392h28v28H560V392M616 392h28v28H616V392M672 392h28v28H672V392M728 392h28v28H728V392M756 392h28v28H756V392M140 420h28v28H140V420M252 420h28v28H252V420M420 420h28v28H420V420M504 420h28v28H504V420M560 420h28v28H560V420M616 420h28v28H616V420M644 420h28v28H644V420M728 420h28v28H728V420M784 420h28v28H784V420M812 420h28v28H812V420M140 448h28v28H140V448M168 448h28v28H168V448M224 448h28v28H224V448M280 448h28v28H280V448M308 448h28v28H308V448M336 448h28v28H336V448M392 448h28v28H392V448M448 448h28v28H448V448M476 448h28v28H476V448M504 448h28v28H504V448M532 448h28v28H532V448M560 448h28v28H560V448M644 448h28v28H644V448M672 448h28v28H672V448M728 448h28v28H728V448M896 448h28v28H896V448M112 476h28v28H112V476M168 476h28v28H168V476M336 476h28v28H336V476M448 476h28v28H448V476M476 476h28v28H476V476M504 476h28v28H504V476M532 476h28v28H532V476M644 476h28v28H644V476M672 476h28v28H672V476M728 476h28v28H728V476M756 476h28v28H756V476M784 476h28v28H784V476M868 476h28v28H868V476M896 476h28v28H896V476M140 504h28v28H140V504M196 504h28v28H196V504M224 504h28v28H224V504M252 504h28v28H252V504M280 504h28v28H280V504M336 504h28v28H336V504M420 504h28v28H420V504M476 504h28v28H476V504M504 504h28v28H504V504M616 504h28v28H616V504M700 504h28v28H700V504M784 504h28v28H784V504M812 504h28v28H812V504M840 504h28v28H840V504M112 532h28v28H112V532M168 532h28v28H168V532M196 532h28v28H196V532M224 532h28v28H224V532M252 532h28v28H252V532M364 532h28v28H364V532M420 532h28v28H420V532M476 532h28v28H476V532M504 532h28v28H504V532M532 532h28v28H532V532M560 532h28v28H560V532M616 532h28v28H616V532M644 532h28v28H644V532M700 532h28v28H700V532M728 532h28v28H728V532M784 532h28v28H784V532M840 532h28v28H840V532M896 532h28v28H896V532M112 560h28v28H112V560M168 560h28v28H168V560M196 560h28v28H196V560M224 560h28v28H224V560M252 560h28v28H252V560M280 560h28v28H280V560M336 560h28v28H336V560M392 560h28v28H392V560M420 560h28v28H420V560M504 560h28v28H504V560M588 560h28v28H588V560M616 560h28v28H616V560M644 560h28v28H644V560M756 560h28v28H756V560M812 560h28v28H812V560M840 560h28v28H840V560M112 588h28v28H112V588M252 588h28v28H252V588M392 588h28v28H392V588M420 588h28v28H420V588M448 588h28v28H448V588M560 588h28v28H560V588M588 588h28v28H588V588M616 588h28v28H616V588M644 588h28v28H644V588M700 588h28v28H700V588M728 588h28v28H728V588M756 588h28v28H756V588M784 588h28v28H784V588M840 588h28v28H840V588M868 588h28v28H868V588M896 588h28v28H896V588M112 616h28v28H112V616M140 616h28v28H140V616M168 616h28v28H168V616M252 616h28v28H252V616M280 616h28v28H280V616M392 616h28v28H392V616M448 616h28v28H448V616M476 616h28v28H476V616M504 616h28v28H504V616M532 616h28v28H532V616M560 616h28v28H560V616M644 616h28v28H644V616M700 616h28v28H700V616M728 616h28v28H728V616M756 616h28v28H756V616M784 616h28v28H784V616M812 616h28v28H812V616M896 616h28v28H896V616M112 644h28v28H112V644M168 644h28v28H168V644M224 644h28v28H224V644M336 644h28v28H336V644M420 644h28v28H420V644M504 644h28v28H504V644M532 644h28v28H532V644M672 644h28v28H672V644M784 644h28v28H784V644M112 672h28v28H112V672M168 672h28v28H168V672M280 672h28v28H280V672M308 672h28v28H308V672M336 672h28v28H336V672M364 672h28v28H364V672M588 672h28v28H588V672M672 672h28v28H672V672M700 672h28v28H700V672M728 672h28v28H728V672M756 672h28v28H756V672M784 672h28v28H784V672M840 672h28v28H840V672M868 672h28v28H868V672M896 672h28v28H896V672M336 700h28v28H336V700M392 700h28v28H392V700M420 700h28v28H420V700M448 700h28v28H448V700M476 700h28v28H476V700M560 700h28v28H560V700M588 700h28v28H588V700M616 700h28v28H616V700M672 700h28v28H672V700M784 700h28v28H784V700M812 700h28v28H812V700M112 728h28v28H112V728M140 728h28v28H140V728M168 728h28v28H168V728M196 728h28v28H196V728M224 728h28v28H224V728M252 728h28v28H252V728M280 728h28v28H280V728M364 728h28v28H364V728M420 728h28v28H420V728M476 728h28v28H476V728M504 728h28v28H504V728M616 728h28v28H616V728M644 728h28v28H644V728M672 728h28v28H672V728M728 728h28v28H728V728M784 728h28v28H784V728M812 728h28v28H812V728M840 728h28v28H840V728M112 756h28v28H112V756M280 756h28v28H280V756M420 756h28v28H420V756M448 756h28v28H448V756M476 756h28v28H476V756M532 756h28v28H532V756M644 756h28v28H644V756M672 756h28v28H672V756M784 756h28v28H784V756M868 756h28v28H868V756M112 784h28v28H112V784M168 784h28v28H168V784M196 784h28v28H196V784M224 784h28v28H224V784M280 784h28v28H280V784M364 784h28v28H364V784M392 784h28v28H392V784M420 784h28v28H420V784M476 784h28v28H476V784M560 784h28v28H560V784M644 784h28v28H644V784M672 784h28v28H672V784M700 784h28v28H700V784M728 784h28v28H728V784M756 784h28v28H756V784M784 784h28v28H784V784M812 784h28v28H812V784M112 812h28v28H112V812M168 812h28v28H168V812M196 812h28v28H196V812M224 812h28v28H224V812M280 812h28v28H280V812M420 812h28v28H420V812M476 812h28v28H476V812M532 812h28v28H532V812M616 812h28v28H616V812M700 812h28v28H700V812M756 812h28v28H756V812M812 812h28v28H812V812M840 812h28v28H840V812M868 812h28v28H868V812M112 840h28v28H112V840M168 840h28v28H168V840M196 840h28v28H196V840M224 840h28v28H224V840M280 840h28v28H280V840M364 840h28v28H364V840M392 840h28v28H392V840M420 840h28v28H420V840M448 840h28v28H448V840M504 840h28v28H504V840M532 840h28v28H532V840M644 840h28v28H644V840M672 840h28v28H672V840M728 840h28v28H728V840M756 840h28v28H756V840M784 840h28v28H784V840M812 840h28v28H812V840M840 840h28v28H840V840M868 840h28v28H868V840M112 868h28v28H112V868M280 868h28v28H280V868M364 868h28v28H364V868M392 868h28v28H392V868M420 868h28v28H420V868M448 868h28v28H448V868M504 868h28v28H504V868M560 868h28v28H560V868M616 868h28v28H616V868M728 868h28v28H728V868M756 868h28v28H756V868M784 868h28v28H784V868M812 868h28v28H812V868M840 868h28v28H840V868M896 868h28v28H896V868M112 896h28v28H112V896M140 896h28v28H140V896M168 896h28v28H168V896M196 896h28v28H196V896M224 896h28v28H224V896M252 896h28v28H252V896M280 896h28v28H280V896M336 896h28v28H336V896M364 896h28v28H364V896M392 896h28v28H392V896M476 896h28v28H476V896M504 896h28v28H504V896M532 896h28v28H532V896M560 896h28v28H560V896M616 896h28v28H616V896M644 896h28v28H644V896M700 896h28v28H700V896M784 896h28v28H784V896M840 896h28v28H840V896"/></svg>