<?xml version="1.0" standalone="yes"?><svg xmlns="http://www.w3.org/2000/svg" version="1.1" width="1056" height="1056" viewBox="0 0 1056 1056" shape-rendering="crispEdges"><rect x="0" y="0" width="1056" height="1056" fill="#fff"/><path fill="#000" d="M128 128h32v32H128V128M160 128h32v32H160V128M192 128h32v32H192V128M224 128h32v32H224V128M256 128h32v32H256V128M288 128h32v32H288V128M320 128h32v32H320V128M384 128h32v32H384V128M416 128h32v32H416V128M448 128h32v32H448V128M544 128h32v32H544V128M576 128h32v32H576V128M704 128h32v32H704V128M736 128h32v32H736V128M768 128h32v32H768V128M800 128h32v32H800V128M832 128h32v32H832V128M864 128h32v32H864V128M896 128h32v32H896V128M128 160h32v32H128V160M320 160h32v32H320V160M416 160h32v32H416V160M448 160h32v32H448V160M576 160h32v32H576V160M704 160h32v32H704V160M896 160h32v32H896V160M128 192h32v32H128V192M192 192h32v32H192V192M224 192h32v32H224V192M256 192h32v32H256V192M320 192h32v32H320V192M384 192h32v32H384V192M544 192h32v32H544V192M576 192h32v32H576V192M640 192h32v32H640V192M704 192h32v32H704V192M768 192h32v32H768V192M800 192h32v32H800V192M832 192h32v32H832V192M896 192h32v32H896V192M128 224h32v32H128V224M192 224h32v32H192V224M224 224h32v32H224V224M256 224h32v32H256V224M320 224h32v32H320V224M416 224h32v32H416V224M480 224h32v32H480V224M544 224h32v32H544V224M576 224h32v32H576V224M640 224h32v32H640V224M704 224h32v32H704V224M768 224h32v32H768V224M800 224h32v32H800V224M832 224h32v32H832V224M896 224h32v32H896V224M128 256h32v32H128V256M192 256h32v32H192V256M224 256h32v32H224V256M256 256h32v32H256V256M320 256h32v32H320V256M480 256h32v32H480V256M544 256h32v32H544V256M704 256h32v32H704V256M768 256h32v32H768V256M800 256h32v32H800V256M832 256h32v32H832V256M896 256h32v32H896V256M128 288h32v32H128V288M320 288h32v32H320V288M384 288h32v32H384V288M448 288h32v32H448V288M480 288h32v32H480V288M544 288h32v32H544V288M640 288h32v32H640V288M704 288h32v32H704V288M896 288h32v32H896V288M128 320h32v32H128V320M160 320h32v32H160V320M192 320h32v32H192V320M224 320h32v32H224V320M256 320h32v32H256V320M288 320h32v32H288V320M320 320h32v32H320V320M384 320h32v32H384V320M448 320h32v32H448V320M512 320h32v32H512V320M576 320h32v32H576V320M640 320h32v32H640V320M704 320h32v32H704V320M736 320h32v32H736V320M768 320h32v32H768V320M800 320h32v32H800V320M832 320h32v32H832V320M864 320h32v32H864V320M896 320h32v32H896V320M448 352h32v32H448V352M512 352h32v32H512V352M576 352h32v32H576V352M608 352h32v32H608V352M640 352h32v32H640V352M128 384h32v32H128V384M192 384h32v32H192V384M320 384h32v32H320V384M352 384h32v32H352V384M416 384h32v32H416V384M480 384h32v32H480V384M512 384h32v32H512V384M576 384h32v32H576V384M640 384h32v32H640V384M736 384h32v32H736V384M832 384h32v32H832V384M896 384h32v32H896V384M128 416h32v32H128V416M160 416h32v32H160V416M288 416h32v32H288V416M352 416h32v32H352V416M384 416h32v32H384V416M448 416h32v32H448V416M512 416h32v32H512V416M544 416h32v32H544V416M608 416h32v32H608V416M640 416h32v32H640V416M672 416h32v32H672V416M704 416h32v32H704V416M736 416h32v32H736V416M800 416h32v32H800V416M864 416h32v32H864V416M896 416h32v32H896V416M128 448h32v32H128V448M160 448h32v32H160V448M224 448h32v32H224V448M256 448h32v32H256V448M288 448h32v32H288V448M320 448h32v32H320V448M352 448h32v32H352V448M416 448h32v32H416V448M448 448h32v32H448V448M480 448h32v32H480V448M608 448h32v32H608V448M672 448h32v32H672V448M704 448h32v32H704V448M800 448h32v32H800V448M832 448h32v32H832V448M896 448h32v32H896V448M160 480h32v32H160V480M224 480h32v32H224V480M288 480h32v32H288V480M448 480h32v32H448V480M512 480h32v32H512V480M608 480h32v32H608V480M640 480h32v32H640V480M704 480h32v32H704V480M800 480h32v32H800V480M128 512h32v32H128V512M192 512h32v32H192V512M224 512h32v32H224V512M288 512h32v32H288V512M320 512h32v32H320V512M352 512h32v32H352V512M384 512h32v32H384V512M416 512h32v32H416V512M448 512h32v32H448V512M608 512h32v32H608V512M704 512h32v32H704V512M736 512h32v32H736V512M896 512h32v32H896V512M160 544h32v32H160V544M192 544h32v32H192V544M256 544h32v32H256V544M384 544h32v32H384V544M608 544h32v32H608V544M640 544h32v32H640V544M704 544h32v32H704V544M736 544h32v32H736V544M864 544h32v32H864V544M896 544h32v32H896V544M128 576h32v32H128V576M160 576h32v32H160V576M320 576h32v32H320V576M416 576h32v32H416V576M480 576h32v32H480V576M544 576h32v32H544V576M576 576h32v32H576V576M608 576h32v32H608V576M672 576h32v32H672V576M704 576h32v32H704V576M800 576h32v32H800V576M832 576h32v32H832V576M896 576h32v32H896V576M192 608h32v32H192V608M224 608h32v32H224V608M256 608h32v32H256V608M384 608h32v32H384V608M416 608h32v32H416V608M448 608h32v32H448V608M576 608h32v32H576V608M672 608h32v32H672V608M736 608h32v32H736V608M768 608h32v32H768V608M800 608h32v32H800V608M128 640h32v32H128V640M160 640h32v32H160V640M192 640h32v32H192V640M320 640h32v32H320V640M352 640h32v32H352V640M384 640h32v32H384V640M448 640h32v32H448V640M480 640h32v32H480V640M512 640h32v32H512V640M640 640h32v32H640V640M672 640h32v32H672V640M704 640h32v32H704V640M736 640h32v32H736V640M768 640h32v32H768V640M864 640h32v32H864V640M384 672h32v32H384V672M416 672h32v32H416V672M448 672h32v32H448V672M512 672h32v32H512V672M576 672h32v32H576V672M608 672h32v32H608V672M640 672h32v32H640V672M768 672h32v32H768V672M896 672h32v32H896V672M128 704h32v32H128V704M160 704h32v32H160V704M192 704h32v32H192V704M224 704h32v32H224V704M256 704h32v32H256V704M288 704h32v32H288V704M320 704h32v32H320V704M384 704h32v32H384V704M512 704h32v32H512V704M544 704h32v32H544V704M576 704h32v32H576V704M640 704h32v32H640V704M704 704h32v32H704V704M768 704h32v32H768V704M896 704h32v32H896V704M128 736h32v32H128V736M320 736h32v32H320V736M448 736h32v32H448V736M480 736h32v32H480V736M512 736h32v32H512V736M608 736h32v32H608V736M640 736h32v32H640V736M768 736h32v32H768V736M128 768h32v32H128V768M192 768h32v32H192V768M224 768h32v32H224V768M256 768h32v32H256V768M320 768h32v32H320V768M448 768h32v32H448V768M512 768h32v32H512V768M608 768h32v32H608V768M640 768h32v32H640V768M672 768h32v32H672V768M704 768h32v32H704V768M736 768h32v32H736V768M768 768h32v32H768V768M864 768h32v32H864V768M128 800h32v32H128V800M192 800h32v32H192V800M224 800h32v32H224V800M256 800h32v32H256V800M320 800h32v32H320V800M576 800h32v32H576V800M672 800h32v32H672V800M768 800h32v32H768V800M832 800h32v32H832V800M864 800h32v32H864V800M128 832h32v32H128V832M192 832h32v32H192V832M224 832h32v32H224V832M256 832h32v32H256V832M320 832h32v32H320V832M384 832h32v32H384V832M448 832h32v32H448V832M480 832h32v32H480V832M544 832h32v32H544V832M576 832h32v32H576V832M640 832h32v32H640V832M672 832h32v32H672V832M736 832h32v32H736V832M768 832h32v32H768V832M800 832h32v32H800V832M864 832h32v32H864V832M896 832h32v32H896V832M128 864h32v32H128V864M320 864h32v32H320V864M448 864h32v32H448V864M480 864h32v32H480V864M512 864h32v32H512V864M608 864h32v32H608V864M640 864h32v32H640V864M672 864h32v32H672V864M736 864h32v32H736V864M768 864h32v32H768V864M128 896h32v32H128V896M160 896h32v32H160V896M192 896h32v32H192V896M224 896h32v32H224V896M256 896h32v32H256V896M288 896h32v32H288V896M320 896h32v32H320V896M384 896h32v32H384V896M416 896h32v32H416V896M448 896h32v32H448V896M512 896h32v32H512V896M576 896h32v32H576V896M640 896h32v32H640V896M672 896h32v32H672V896M800 896h32v32H800V896M896 896h32v32H896V896"/></svg>